<svg version="1" xmlns="http://www.w3.org/2000/svg" width="2848" height="2848" viewBox="0 0 2136.000000 2136.000000"><path d="M1354.5 43c-.3.6.1.7.9.4 1.8-.7 2.1-1.4.7-1.4-.6 0-1.3.4-1.6 1zM1350 44c-.9.6-1 1-.3 1 .6 0 1.5-.5 1.8-1 .8-1.2.4-1.2-1.5 0zM1323 52.5c-1.9.7-2.8 1.4-2 1.4.8 0 2.9-.6 4.5-1.4 3.9-1.7 2.1-1.8-2.5 0zM1313.5 55.6c-2.2.8-6 2.2-8.5 3-6.9 2.4-31.6 12.2-39.5 15.6-3.8 1.7-8.3 3.6-10 4.3-16.9 7.2-65.5 31.7-84.2 42.6-34.9 20.3-61.7 38-65 42.9-2.7 3.9-15 24.4-25.5 42.5-3.9 6.6-10.1 16.9-13.8 23-6.3 10.2-11.7 19.3-29.5 49.5-8.4 14.3-11.2 17.4-23 25.2-25 16.5-67.1 32.9-124 48.1-25.6 6.9-55.5 19.2-67.9 28.1-23 16.4-39.3 44.3-44.2 75.1-1.8 11.8-1.8 31.7.1 43 1.8 11.2 1.9 14.5.2 14.5-.7 0-3.5 1.1-6.3 2.4-2.7 1.4-8.5 3.7-12.9 5.1-4.4 1.5-10 3.7-12.5 5-2.5 1.3-7.4 3-10.9 3.9-3.5.8-7.1 2.1-8 2.8-2.9 2.3-6 3.8-8 3.8-1.1 0-3.2 1.1-4.8 2.3-1.5 1.3-4.1 3.1-5.8 3.9-1.6.8-4.3 2.2-6 3.1-5 2.7-10.2 4.7-11.9 4.7-1 0-5 1.8-9 4s-7.9 4-8.6 4c-.7 0-3.3 1.8-5.7 4.1-2.5 2.2-6.6 5-9.1 6.1-2.6 1.1-6.5 2.8-8.8 3.9-2.2 1-4.7 1.9-5.5 1.9-.8 0-2.5 1.2-3.8 2.6-1.4 1.4-4.6 3.7-7.3 5-2.7 1.4-8.4 5.2-12.7 8.4-4.3 3.3-8.3 6-9 6-2.2 0-9.5 4.3-14.9 8.6-3 2.4-6.2 4.4-7.2 4.4s-3.1 1.1-4.7 2.3c-1.5 1.3-5.5 3.8-8.8 5.6-9.4 5.1-14.2 8.2-20.5 13.3-3.2 2.7-6.2 4.8-6.7 4.8-.8 0-16.5 10-30.1 19.2-3.5 2.4-9 6.5-12.3 9.3-3.3 2.7-7.9 6.4-10.2 8.2-2.3 1.8-6.6 5.1-9.4 7.3-2.9 2.2-8.5 5.8-12.5 8s-13.4 8.8-20.9 14.7c-20.1 15.9-23.5 18.4-30 21.3-1.4.6-3.8 2.3-5.5 3.8-1.6 1.5-6.5 5.6-10.8 9-4.4 3.5-9.3 7.7-11 9.3-6.8 6.5-12.1 10.9-13.2 10.9-1.4 0-9.4 8.5-11.9 12.7-1.1 1.8-2.7 3.3-3.7 3.3s-2.6 1-3.6 2.2c-.9 1.1-3.8 4.4-6.4 7.2-2.6 2.8-8.5 9.6-13 15-4.6 5.5-9.7 10.8-11.5 11.7-5.1 2.9-10.2 8.7-19.8 22.9-5 7.3-10.6 15.2-12.6 17.6-2.1 2.3-4.9 6.9-6.5 10.1-1.5 3.2-3.7 7.1-4.9 8.8-1.2 1.6-3.8 6.1-5.9 10-2.1 3.8-4.8 8.3-6 10-3 4.1-9.6 17.2-9.7 19.3 0 .9-.9 3-1.9 4.7-1.7 2.6-4.9 8.6-9.5 17.5-.7 1.4-1.9 4.1-2.8 6-1.4 3.2-8.4 17.3-12.1 24.5-.9 1.6-1.6 4.4-1.6 6 0 1.7-.7 4.1-1.6 5.3-1 1.5-1.3 3.2-.9 5.2.5 2.1.1 3.8-1.3 5.7-2.5 3.7-3.3 6-3.9 10.8-.6 4.5-3.9 16.2-5.3 18.5-3.5 5.5-4.5 8.2-5.2 13.5-.4 3.3-1.1 7.8-1.7 10-.5 2.2-1.6 7.2-2.5 11.2-.8 3.9-2.6 9.5-4 12.4-1.3 2.9-2.2 5.8-1.9 6.5.2.7-.5 3.1-1.6 5.5-1.2 2.3-2.1 5.5-2.1 7s-.4 3.1-1 3.4c-.5.3-1 1.6-1 2.8 0 1.2-.7 4-1.5 6.2s-1.4 5.4-1.5 7.1c0 3-2.2 11.5-4.1 15.9-1.5 3.6-4 13.4-3.8 14.7.5 2.4-1.3 11.2-3.2 16.3-1 2.7-1.9 6.5-1.9 8.4 0 5.9-3.3 22.1-5.1 24.6-.7 1.1-2.1 10.7-2.5 17.5-.2 4.7-2 14.4-3.1 17-.4.8-.8 4.3-.8 7.7-.1 3.4-.7 6.9-1.3 7.6-.7.8-1.5 4.3-1.8 7.8-.4 3.5-1.3 8.9-2.1 11.9s-1.6 10.2-1.8 16c-.3 9.7-.8 13.1-3.3 24.6-.6 2.8-.5 5.6.4 9 .9 3.3 1 5.9.4 7.9-.5 1.6-1.1 6.8-1.4 11.5-.2 4.7-.9 9.8-1.5 11.3-.6 1.6-1.1 4.1-1.1 5.6s-1 5.9-2.2 9.7c-1.8 5.5-2.3 6.4-2.6 4.1-.5-4-2.2-3.3-2.2 1 0 2.1-.9 7.4-2 11.8-1.6 6.1-2 10.7-1.8 19.6.1 7.6-.2 12.2-.9 13.1-.8.9-1.2 7.9-1.2 21.1-.1 18.4-1 27.6-3 30.2-.5.5-.9 12.2-1 26-.1 13.7-.3 35.8-.4 49.1-.2 21.4 0 24.3 1.6 26.7l1.7 2.7-4.3 4.2c-2.3 2.4-5.5 5.9-6.9 7.8-1.5 1.9-4.3 5.3-6.3 7.5s-4.5 5.7-5.6 7.8c-2.1 4.1-.8 3.8-18.4 4.2-4.4.2-11.4.6-15.5 1-8 .8-9.3.3-10.2-4-.2-1.2-1-1.8-1.9-1.6-.8.3-5.9.5-11.4.6l-10 .1-.3 2.8c-.2 1.8-1.2 3-2.7 3.6-1.9.7-21.5.7-30.5 0-.8-.1-3.1.2-5 .7l-3.5.9-.3 11.4c-.2 8.4.1 11.5 1 12.2.7.4 10.6.5 22 .3 14-.3 21.5-.1 23.2.6 2 .9 3.1.8 6.3-.9 3.1-1.8 6.2-2.2 17.8-2.7 7.7-.3 15.9-.7 18.3-.8 7.5-.6 8.1 3.6 1.3 9.1-2.1 1.7-4.2 4.4-4.6 5.9-.3 1.5-3.1 5.3-6.1 8.5-3 3.1-5.4 6-5.4 6.5 0 .4-1.6 2.5-3.5 4.7-2 2.1-4.4 6.1-5.3 8.9-1.4 4.1-2.5 5.5-5.7 7.3-2.2 1.2-4.3 2.8-4.7 3.5-6.7 12.8-7.7 16.5-5.9 21.1 1.8 4.7 16.1 17.8 19.4 17.8 1.1 0 3.5 1.1 5.3 2.5 1.8 1.4 4.5 3 5.9 3.5l2.7 1-1.8 2.8c-1.6 2.3-1.9 4.7-1.9 15.2 0 6.9.4 16.5.8 21.5.7 8.6.9 10.1 2.2 17 .3 1.6 1 5.6 1.5 8.8.5 3.2 1.3 6.4 1.8 7 .5.7 1.2 6.9 1.5 13.9.4 9.2 1 13.4 2.1 15 .9 1.2 1.6 4.1 1.6 6.3.1 5.6 1.8 12.6 3.7 14.7 1.1 1.2 3.1 1.8 5.8 1.8 4.6 0 4.9.4 9.5 12 1.2 3 2.9 6.3 3.7 7.2 1.6 1.8 2.9 6.3 4.5 15.3.6 3.3 1.9 7.8 3 10 1.2 2.2 3.3 8.8 4.9 14.7 1.5 5.9 3.9 13.1 5.3 16 1.3 2.9 2.7 8.3 3.1 12.1.5 5.2 1.3 7.5 3.3 9.8 1.7 2.1 2.8 4.9 3.3 8.5.4 2.9 1.5 6.8 2.4 8.6 5.3 10 5.6 11.1 5.4 16.3-.2 3.9.3 6.2 1.9 8.9 1.2 2.1 2.2 4.6 2.2 5.7 0 1 1.4 3.8 3 6.1 2.5 3.3 3 5.1 3 9.5 0 4 .8 6.9 2.9 11.1 1.6 3.1 3.4 6.8 4 8.2.6 1.4 2 3.8 3 5.5 1.1 1.6 2 3.7 2 4.5.2 2.9 1.8 4 7.6 5.5 3.4.9 6.4 2.4 7.2 3.5.8 1.1 2.2 2 3.1 2 .9 0 3.7 1.4 6.2 3s5.4 3 6.6 3c1.1 0 4 1.2 6.5 2.8 2.4 1.5 5.5 3.3 6.9 4 1.4.7 3.9 2.1 5.5 3.1 1.7 1.1 4 2 5.2 2 1.2.1 2.4.5 2.8 1 .3.5 3.3 1.9 6.8 3 3.4 1.2 8.2 3.7 10.6 5.6 3.1 2.5 5.4 3.5 8 3.5 2 .1 5.6.5 8.1 1.1 2.5.5 6.1 1.2 8 1.5 1.9.2 4.9 1.1 6.6 1.9 1.7.8 6.5 1.7 10.8 2 4.2.3 9.6 1.2 11.9 1.9 2.3.8 7.6 1.7 11.7 2 4.1.4 9.8 1 12.5 1.4 2.8.4 6.6.4 8.5 0 1.9-.4 10.9-.7 20-.6 10.4.1 18.1-.3 20.8-1.1 2.4-.7 12.1-1.4 21.5-1.7 9.5-.3 18.8-.6 20.7-.8 1.9-.2 10.5-.9 19-1.6 9.4-.7 18.1-1.9 22.1-3.1 3.6-1.1 8.1-1.9 10-1.9 6.1.3 14.3-1.3 19.8-3.6 2.9-1.3 6.1-2.4 7-2.4.9 0 2.2-.5 2.9-1.2.7-.7 1.2-.9 1.2-.5s1 .3 2.1-.4c1.2-.6 3.6-1.3 5.3-1.6 1.7-.2 6.3-1 10.1-1.8 3.9-.8 9.3-1.7 12-2 2.8-.4 5.5-1.1 6.2-1.7.7-.5 1.6-.7 2.2-.4 1.3.8 18.2-4.7 23.7-7.8 2.6-1.4 5.4-2.6 6.3-2.6.9 0 4.3-1.4 7.6-3s7.4-3 9.1-3c1.6 0 4.5-1.1 6.3-2.4 1.8-1.3 4.7-2.9 6.4-3.6 9.5-3.6 10.7-4.3 12.7-8.5 1.1-2.3 2-4.7 2-5.4 0-.7 1.3-3 2.8-5 1.6-2 3.4-5.6 4.1-8.1.7-2.5 1.7-5.2 2.2-6 2.3-3.9 3.9-8.5 3.9-11.2 0-1.6 1.8-6.1 4.1-10.1 4.4-7.8 6.9-15.5 6.9-21.7 0-2.1.4-4.1.9-4.4 1.1-.7 2.8-10.4 3.6-20.6.4-4.1 1.3-8.9 2.1-10.5 1.8-3.9 3.4-12.5 3.4-18.3 0-4.2 1.2-10.2 3-14.7 3.2-7.8 4.1-13 4.9-27 .6-10.8 1-12.8 4.2-20 2-4.4 4.1-10.1 4.7-12.7.7-2.6 2.6-6.7 4.2-9.1 1.7-2.5 3-5.5 3-6.6 0-2.3 3.8-14.9 5-16.6 1.1-1.7 3.7-9.6 5.1-15.9.7-3.2 2-6.6 2.9-7.5 3-2.8 4.8-6.5 5.5-11.1 1-6.2 3.4-12 6.1-15 1.2-1.4 2.6-3.7 2.9-5.3.4-1.5 1.1-3 1.6-3.3.5-.3.9-2.5.9-4.9 0-3.9.3-4.4 3-5.4 2.3-.7 3.8-.6 6.5.5 5 2.1 6.8 1.8 11.7-1.9 2.4-1.7 6-4.3 8-5.7 5.1-3.4 6.1-7 6.2-22.8l.1-13.3 5 .7c2.8.4 8.5.7 12.8.7 9.2-.1 13.1-1.7 16.7-7.2 2.2-3.2 2.5-4.6 2.4-12.1-.1-6.4-.7-9.8-2.3-13.4-1.1-2.7-2.1-5.6-2.1-6.6 0-.9-.9-2.5-2.1-3.6-1.2-1-3.7-4.4-5.7-7.4-1.9-3-5-7.1-6.8-9-5-5.2-9.4-10.7-9.4-11.5 0-.4 4.2-.5 9.3-.1 5 .3 14.6.9 21.2 1.2 6.6.4 12.6 1.1 13.2 1.6 1.4 1.1 12.3 1.3 18.2.3 2-.3 5.9-.1 8.6.5 6 1.4 22.6 2.2 42.8 2 13-.1 14.7 0 14.7 1.5 0 3.3-5.5 10.5-8.1 10.5-.9 0-4.9 3.6-10.6 9.3-8.2 8.2-17.7 19.7-19.6 23.6-1.9 3.9-2.3 15.1-.7 19.7.6 1.6 2.7 4.2 4.7 5.9 2 1.6 6.7 5.8 10.5 9.3 3.8 3.4 7.6 6.2 8.4 6.2.8 0 1.8 1 2.3 2.2 1.1 2.9-.7 6.6-5.9 12.2-2.1 2.3-4.2 5.5-4.6 7.1-.4 1.7-1.1 3.5-1.6 4.2-.5.6-.8 2-.6 3 .1 1-.1 2.4-.6 3.1-1.4 2.3-.9 8.6 1.3 15.6 1.5 4.9 3.1 7.7 6.1 10.6 5.8 5.7 6.8 6 17.8 6 9.9 0 10 0 12.6 3 3 3.6 3.7 6.1 6.6 23 1.2 6.9 2.6 14.3 3 16.5.5 2.2 1.4 6.2 1.9 9l4 18c2.9 12.6 3.7 18 4.6 29.5.5 7.8 2.4 22.2 3.2 24 .3.8.7 3.7.8 6.5.3 8.7 2.5 27.3 3.4 29.8.5 1.4.6 4 .1 6.1-.4 2-.4 5.3 0 7.3.5 2.1 1.1 9.2 1.4 15.8.3 7.8 1.1 13.4 2.1 15.9 1 2.3 1.4 5.2 1.1 7-.3 1.7 0 5.4.8 8.1.7 2.8 1.1 6.5.8 8.3-.2 1.8.1 3.8.7 4.6 1.2 1.4 1.8 4.4 2.6 12.6.8 8.3 5.8 19.6 9.8 22.3 1.4.9 2.8 2.8 3.1 4.4 1.3 5.3 5.4 10.2 10.4 12.4 6.9 3.1 12.5 6 14.3 7.5.8.8 2 1.4 2.5 1.4.6 0 2.6 1.2 4.5 2.6 1.9 1.4 5.4 3.5 7.9 4.6 2.5 1.1 6.1 2.8 8 3.8 1.9 1 5.8 2.4 8.5 3.1 2.8.6 5.5 1.6 6.1 2 2 1.6 9.6 3.9 16.2 4.9 3.5.6 7.8 1.8 9.5 2.7 3.1 1.6 8.5 2.1 26.8 2.7 5.3.2 10.6.9 11.8 1.5 1.2.7 5.4 1.4 9.4 1.6 12.2.7 30.6 2.3 31.5 2.9.4.2 6.8.7 14.2 1.1 7.4.3 15.1.8 17 1 6.6.9 21.5.6 27-.5 6.4-1.3 26-1.2 30.4.2 3.6 1.1 11.1 2.1 14.6 2.1 1.4-.1 4.8-.1 7.5-.2h7c2.2 0 20.6-.9 33-1.7 4.4-.3 10.6-.6 13.8-.7 3.2-.1 6.1-.7 6.5-1.4 1-1.5 4.1-2.2 13.6-2.8 4.3-.2 8.9-1.1 10-1.9 3.3-2.1 9.8-3 24.1-3.2 14.4-.2 24.9-1.4 28.1-3.2 1.2-.6 4.7-1.3 7.7-1.6 3-.2 6.4-.9 7.6-1.5 1.1-.6 4.6-1.1 7.8-1.1 3.3 0 6.3-.4 6.9-.9 1.4-1.3 9.8-3.1 14.6-3.1 2.4 0 4.8-.4 5.4-.9.5-.5 2.9-1.2 5.4-1.5 16.5-2 22.1-3.6 25.1-7.2.6-.8 1.8-1.4 2.5-1.4.8 0 4.1-2.6 7.4-5.8 5.2-4.9 6.5-6.9 9-13.7 4.5-12.5 4.8-13.6 5.9-20.8.5-3.8 1.7-7.7 2.6-8.7.9-1 1.8-2.9 2-4.2 1.8-11.7 3-16.8 4.6-19.9 1-2 2.5-8.4 3.3-14.5.8-6 1.9-12.7 2.5-14.9.6-2.2 1-7.6 1-12.1-.1-5.1.3-8.9 1.2-10.5.8-1.5 1.6-8.4 2.1-18.9 1.3-26.7 1.9-34.4 2.8-35.5.5-.6 1.4-5.7 2-11.5 2-18.7 4.2-31.4 6.2-36.4 1.6-4.2 3.2-13.6 4.1-24.8.1-1.5.7-3.1 1.2-3.7.6-.5 7.5-1.1 15.5-1.3 13.5-.3 14.9-.5 20.4-3.1 3.2-1.5 7.2-3.1 8.7-3.4 1.6-.3 3.4-1.2 4-1.9.6-.8 2.9-1.9 5-2.4 4.8-1.3 6.5-4.3 8.1-14.5 1.1-6.9 1-8.2-1.1-15.4-1.3-4.4-2-8.4-1.7-8.9.7-1.2 13.3-3.5 14.7-2.7.5.4 2.9-.4 5.2-1.8 2.3-1.3 6.7-3.2 9.8-4.1 4.4-1.2 6.9-2.8 11.6-7.4 6.9-6.7 8.6-10.7 8.7-20.2 0-5.4-.6-7.7-3.6-14-2-4.1-4.9-9.3-6.6-11.4-2.9-3.9-2.9-4-1.2-7 2.6-4.5 3.6-18.2 1.5-22-.8-1.5-1.5-3.5-1.5-4.3 0-.8-.8-2.8-1.7-4.4-3-5-1.5-5.3 19.5-5.1 10.3.2 20.5.8 22.7 1.4 2.2.6 9.2 1.2 15.5 1.4 14.9.3 15.6.3 28 0 5.8-.2 13.2 0 16.5.4 3.3.3 8 .2 10.5-.3 3.1-.7 5.9-.6 9.1.2 6.1 1.6 24.2 2.2 29.8 1 2.8-.6 4.7-.6 5.5 0 1.1.9 11 1.3 24.6 1 2.5-.1 7.9 0 12 .1s10.2.2 13.5.1c3.3 0 14.3-.2 24.5-.4s23.9-.1 30.5.3c7.9.3 13.2.1 15.6-.7 2.6-.8 5-.8 8-.1 2.7.6 9 .7 15.9.2 12.6-.8 13.3-.8 30 .2 15.9.9 21.6.9 35.9-.4 8.1-.7 13.2-.7 14.9-.1 1.5.6 6.1.7 11 .3 7.9-.7 8.6-.6 10.1 1.5 2.6 3.4 8.3 3.9 12.9 1 3.2-2.1 4.8-2.4 11.5-2.3 4.3.1 8.4.7 9.2 1.4 1 .8 7.6 1.4 19.7 1.7 10.1.3 19.1.9 20.1 1.4.9.6 8.6 1.2 17 1.4 8.3.2 17.5.8 20.2 1.3 2.8.6 9.2 1.4 14.3 1.7l9.3.8-.3-10.9-.3-10.9-6.7-.6c-3.7-.3-7.3-1.1-8.1-1.7-1.7-1.4-11.2-2.4-21.5-2.3-4 .1-9-.3-11-.9-2.1-.5-8.5-1.2-14.4-1.4-5.9-.3-11.3-.8-12-1.2-.7-.5-4.9-1-9.3-1.2-23.4-1.1-27-1.4-28.7-2.9-1.3-1.2-1.5-2.1-.7-4 .5-1.4.9-4.8.8-7.6-.2-12 1.1-39.7 2.1-46.2 2.4-15.5 4-56.7 2.9-74-.1-1.1.3-3.6.8-5.5.6-2 .7-5.8.4-8.5-.4-2.8-.3-8.6.2-13 .8-7.6 1-15.1.6-26-.2-5.8 1-16.3 2.1-18.5.5-.9.4-2.4-.2-3.3-1.3-2.4-1-36 .4-39.5.6-1.5 1.2-10.8 1.4-20.7 1-51.6 1.1-69.2.1-71.5-1.9-4.9-2.7-49-1.3-81 1-23.5.7-37.1-1.1-44-.7-2.8-1.3-8.9-1.8-19.7-.2-4.8-1-8.6-2.3-11-1.1-2.1-2.3-4.9-2.7-6.3-1.1-4.3-2.5-17.1-3-27-.2-5.6-1-11.1-2-13.3-.8-2.1-1.3-4.2-.9-4.8.3-.6-.2-1.9-1.2-3-1.1-1.2-1.8-3.4-1.7-5.7.1-2-.4-4.6-1-5.7-.6-1.1-.9-5.7-.8-10.3.2-6.1-.1-8.8-1.2-10-.8-1-2-4.6-2.7-8.2-.7-3.6-2.1-9.2-3.1-12.5-.9-3.3-2.1-8.3-2.4-11-.4-2.8-1.2-5.9-1.8-7-1.4-2.5-3.7-12.6-4.1-17.9-.1-2.2-1-4.4-1.9-5.1-.9-.7-1.7-1.7-1.7-2.4 0-1.1-1.1-3.5-9.9-22.2-2.9-6.1-4.1-9.9-4.1-13.1 0-2.9-.7-5.4-1.9-6.9-1-1.3-2.6-4.7-3.5-7.4-.9-2.8-2.6-6.2-3.6-7.7-1.1-1.5-2-3.7-2-4.9 0-2.6-3.7-10.7-5.9-12.9-3.4-3.4-10.1-15-10.1-17.4 0-1.9-1.1-3.4-3.9-5.4-3.2-2.2-4.1-3.6-5.2-8.2-.9-4-2.3-6.6-5.2-9.5-2.1-2.2-4.9-6-6.1-8.5-1.2-2.5-2.8-5.6-3.6-7-.7-1.4-1.6-3-1.9-3.7-.3-.6-2.7-4.1-5.3-7.7-2.6-3.7-5.1-7.8-5.4-9.1-.3-1.4-3.8-5.7-7.6-9.5-3.8-3.9-7.8-9.1-8.9-11.5-1.1-2.5-3.2-5.2-4.9-6.2-1.7-.9-3-2.4-3-3.3 0-.8-.9-2.6-2-4s-2-3.7-2-5.1c0-1.9-1.3-3.8-4.5-6.5-2.5-2.1-6-6.1-7.8-8.9-1.7-2.7-3.7-5.6-4.4-6.3-.7-.7-1.3-2-1.3-2.8 0-.8-4.5-6-10.1-11.6-5.6-5.5-12-12.9-14.3-16.3-2.2-3.5-6.7-9.3-10-12.9l-5.8-6.6 3.6-8.7c2-4.9 4.7-13.3 6.1-18.7 2.2-8.7 2.5-11.6 2.2-23.5-.4-13.3-2.8-27.1-4.8-27.1-1.2 0-1.1 1.3.6 9 3.2 14.6 1.4 35.1-4.4 50.8-5.8 15.5-22.7 39.2-38.7 54.1-11.6 10.8-27.8 23.6-36.4 28.6-38.5 22.6-90.2 32.9-159.7 31.9-20-.3-54.1-2.3-65.3-3.9-1.9-.2-6.2-.7-9.5-1.1-3.3-.3-17-2.1-30.4-4l-24.5-3.5-10 3.5c-24.2 8.5-37.9 8.7-52.1.7-5.3-3-6.8-3.3-18.4-4.1-6.9-.5-28.3-1.1-47.6-1.4-94.1-1.6-138.6-2.9-189-5.7-63.9-3.4-115.5-10-139-17.8-28.2-9.3-56.2-28.2-95.4-64.5-15.3-14.2-46.7-50.2-65.1-74.6-30.9-41.1-56.6-87.7-65.1-118.2-5.4-19.4-7-50.6-3.4-68.8 1.8-9.2 1.6-9 7.3-9h4.7l1.8-5.8c2.7-8.2 14.1-31 17.9-35.7 9.8-11.9 24.5-23.4 41-32 11.3-5.9 26.5-11.3 56.8-20 48.3-13.9 78.9-26.3 101.3-41.2 9.3-6.1 14.4-11.4 19.7-20.5 5.5-9.3 19.9-30.4 26.3-38.7 2.7-3.5 10.5-16.1 17.2-28 24.5-43.1 31.3-54.7 34.1-57.5 3.8-4 33.2-23.1 54.9-35.8 35.4-20.7 75.2-40.9 104.2-52.9 5-2.1 10.5-4.5 12.2-5.4 1.7-.8 3.4-1.5 3.8-1.5.5.1 2.4-.6 4.3-1.4 1.9-.8 7.8-3.1 13-5.1 5.2-1.9 10.4-4 11.5-4.5 3.3-1.4.3-1-4 .6zM789.1 438.3c-1 .9-1.1.8-.5-.6.3-1 .9-1.5 1.2-1.2.3.3 0 1.1-.7 1.8zm-.4 98.9c.5.7 1.6 2.9 2.3 4.8 2.4 6.4 13.6 28.3 21.4 41.8 14.6 25.4 35.8 55.5 58 82.2 16.9 20.4 16.8 20.2 40.1 43.5 45.8 45.9 80.4 67.8 120.7 76.4 20.3 4.4 54.2 8.8 79.8 10.6 5.2.4 10.6.8 12 1 1.4.2 7.7.6 14 1 6.3.3 14 .8 17 1 3 .2 11.6.7 19 1 7.4.3 17.3.7 22 1 4.7.3 17.7.7 29 1 11.3.3 28.4.7 38 1 9.6.3 31.7.7 49 1 86.1 1.4 86.8 1.5 97 6.6 14.7 7.4 28.3 7.3 50.5-.2 9.5-3.2 12.8-4 16.5-3.6 2.5.3 14.4 1.9 26.5 3.6 24.8 3.5 45.3 5.7 60 6.6 5.5.3 11.8.8 14 1.1 7.6.9 60.1.5 72-.6 18.3-1.6 21-1.9 34.5-4.1 11.4-1.8 35.9-7.7 41.3-9.9 1.2-.5 5.6-2.1 9.7-3.6 10.6-3.8 25.6-11.4 34.7-17.6 4.3-2.9 8-5.5 8.3-5.8.3-.3 1.9-1.6 3.5-2.9 8.7-6.7 28.3-25.3 34.8-33l2.8-3.4 4.7 5.3c2.6 3 5.4 7 6.3 9.1.9 2 3.3 4.9 5.3 6.5 2 1.6 5.9 6 8.6 9.9 2.6 3.8 6.7 9 8.9 11.5 2.3 2.4 4.4 5.3 4.7 6.5.4 1.1 2.8 4.3 5.5 7.2 2.7 2.8 4.9 5.9 4.9 6.7 0 .9.4 1.6.8 1.6.5 0 1.4 1.2 2.1 2.7 1.6 3.5 11.2 16.3 12.2 16.3s13.9 17.2 17.9 24c1.8 3 4.3 6.8 5.6 8.3 1.3 1.6 2.4 3.9 2.4 5.2 0 2.3 5.4 11.8 10.2 17.9 5.1 6.5 10.8 15.2 10.8 16.4 0 1.8 4.8 11.1 7.6 14.8 1.3 1.7 2.4 3.4 2.4 3.9 0 .4 1.9 3.5 4.3 6.9 2.3 3.3 4.9 7.7 5.8 9.6.9 1.9 3.4 7.4 5.7 12.2 2.3 4.7 4.2 9.4 4.2 10.5.1 1 .7 2.9 1.5 4.3s1.4 3.9 1.5 5.5c0 1.7 1.1 4.7 2.5 6.7s2.5 4.2 2.5 4.8c0 .7.6 2.6 1.4 4.3 4.7 10.4 5.8 13.8 6.3 18.7.3 3 1.2 6.4 1.9 7.5.8 1.1 1.4 3.5 1.4 5.5 0 1.9 1.2 5.7 2.5 8.5 1.4 2.7 2.5 5.9 2.5 7 0 1.1 1.1 5.1 2.4 9 1.3 3.8 2.6 9.5 3 12.6.3 3.1 1.2 6.9 2 8.4.8 1.6 1.2 4.1.9 6-.3 1.8.1 4.2.8 5.6.9 1.5 1.4 5.7 1.5 10.9.1 11.2 1.2 18.9 3.2 22 .9 1.4 1.7 3.4 1.8 4.5.9 10.7 4.4 29.7 6.3 33 2.4 4.4 5 39.9 3.2 43.4-.9 1.6-.9 2.6.1 4.3 1.8 3.3 2.3 27.8 1.4 74.3-.3 16.4-.1 29 .6 32 .8 4.3 2.3 49 1.8 58 0 1.6-.1 7-.1 11.9.1 7.4-.4 9.9-2.3 14-1.6 3.4-2.2 6.1-1.9 8.1.3 1.6.7 11.8.9 22.5.4 25.9.4 28.7-.2 34.5-.2 2.7-.7 10.2-1 16.5-.3 6.3-.9 11.9-1.4 12.5-.5.6-.4 2.8.2 5.3.6 2.6.7 6.3.2 9.9-.4 3.2-.7 6.5-.6 7.3 1 6.2.8 31.9-.3 34.9-.8 2.4-1 6.2-.6 11.5.4 4.3.3 10.4-.1 13.5-.4 3.1-1 10.5-1.3 16.6-.3 6-1 17.7-1.6 26-.6 8.2-1.2 17.8-1.3 21.2-.4 9.5-1.4 10.5-12.7 11.3-6.8.5-11.2.3-15.9-.8-3.6-.8-7.4-1.3-8.5-1.2-13.4 1.1-24.9 1.5-41 1.2-37.1-.6-90.3-.3-126 .7-3.8.1-9.6.2-12.7.2-3.2 0-7.5 0-9.5.1-2.1 0-6 0-8.8-.1-2.7-.1-5.7-.1-6.5-.2-.8 0-7.8-.5-15.5-1.1-14.8-1.1-18-1.2-28.5-.9-11 .3-56.2-.8-62-1.5-3-.3-11.1-.7-18-.8-6.9-.2-16.3-1-21-1.8-4.8-.9-14-1.6-21.1-1.6-7 0-13.6-.5-14.7-1.1-1.1-.6-2.2-2.5-2.6-4.3-.3-1.8-1.7-5.6-3-8.5-1.9-4-3.4-5.7-6.5-7.3-4.9-2.5-5.7-1.6-4.8 5.5.6 5.7-1.3 6-3.8.8-1-2.1-2.3-4.7-2.8-5.8-.6-1.1-1.7-3.3-2.5-4.8-.8-1.6-3.2-4.7-5.4-7s-4.8-5.4-5.9-6.8c-1-1.5-4.1-4.1-6.8-5.8-2.7-1.8-5.2-3.8-5.4-4.5-.5-1.3-7.4-5.5-16.8-10.2-2.5-1.3-5.8-3.9-7.2-5.7-2.8-3.6-10.2-7.7-14-7.7-1.3 0-2.7-.4-3.2-.9-1.4-1.3-16.7-7.1-18.8-7.1-1.1 0-6.4-1.8-11.8-4-5.5-2.2-11.6-4-13.7-4-2.1 0-5.8-1-8.2-2.1-2.4-1.2-7.1-2.5-10.5-2.9-7.9-1-11.5-2-11.5-3.1 0-2.1 5.2-7.9 22.5-25.3 18.7-18.8 21.1-21.6 24.3-28.8 1.1-2.4 3.8-6.3 6.1-8.8 2.4-2.5 5.8-6.3 7.6-8.5 1.8-2.2 4.9-5.8 6.9-8 2.2-2.4 3.6-5 3.6-6.6 0-1.4 1.7-5 3.8-8 2.1-3 4.4-6.9 5.1-8.6.7-1.8 2.4-4.5 3.7-6 2.6-3 4-9.7 3-13.9-.4-1.5-2-3.9-3.6-5.5-2.3-2.3-3.7-2.9-7.4-2.9-3.9 0-5.1.5-8.1 3.5-1.9 2-3.5 4.1-3.5 4.8 0 .7-1.3 2.8-2.8 4.7-1.6 1.9-3.4 5.1-4.2 7-2.1 5.3-9.5 16.7-17.2 26.3-1.3 1.6-3.7 5.5-5.3 8.8-1.7 3.2-4.6 7-6.4 8.4-1.9 1.3-4.6 4.2-6 6.3-3 4.3-6.7 8.2-8 8.2-.4 0-2.6 2.2-4.7 4.9-7.4 9.2-18.8 21.6-22.1 24-1.9 1.4-4.9 4.6-6.8 7.3-1.9 2.6-5.2 5.8-7.2 7.1-2.1 1.4-5.3 4-7 5.8-1.8 1.9-5.9 6.1-9 9.4-3.2 3.3-7 6.8-8.6 7.8-1.5 1-3.7 3.3-4.9 5.1-1.2 1.8-3.3 3.8-4.7 4.5-6.9 3-11.2 6.3-19.2 14.5-8 8.1-10.9 10.5-14.9 12.2-4.9 2-6.9 3.5-12.1 8.5-4.4 4.4-6.6 5.8-9.8 6.4-3.3.5-5 1.6-7.8 5.1-2 2.4-4.9 4.6-6.4 4.9-1.4.3-4.1 1.7-6 3.1-1.8 1.3-4.2 2.4-5.4 2.4-1.1 0-3.9 1-6 2.1-15.5 8.3-25.5 12.7-30.4 13.3-2.9.4-6.5 1.5-7.9 2.4-4.9 3.2-9.7 4.2-20.9 4.2-10 0-11.7-.3-15.9-2.5-2.6-1.4-5.2-2.5-5.9-2.5-.6 0-2.9-1.6-5-3.5-2.2-1.9-4.8-3.5-5.9-3.7-1.1-.2-3-1.9-4.2-3.8-1.3-1.9-3.4-4.9-4.8-6.6-5-6.1-13.5-24.4-15.2-32.9-2.6-12.7-3.6-24.2-2.4-26.6.7-1.2 1.1-9.3 1-21.2 0-21.5.7-39.5 1.8-41.1.4-.6.8-4.3.9-8.1.2-9.8 2.2-22.4 4.1-26 1.6-2.9 2.5-8.5 3.8-23.3.5-5.8.3-8.1-1.1-11.1-1.7-3.8-6.5-7.1-10.5-7.1-2.5 0-9 6.3-9 8.7 0 1.2-.6 3.6-1.4 5.5-.8 1.9-1.8 5.9-2.2 8.9-.3 3-1.5 7-2.5 8.9-1.3 2.5-1.9 6.3-2.1 13.1-.2 5.4-.9 10.3-1.5 11.1-1.5 1.7-3.3 17-4.3 35.8-.7 14.4-1.6 18.6-4.1 20.7-3.7 3-22 6.2-39 6.8-4.1.1-8.4.7-9.5 1.2-1.7.9-8.1 1.9-18.1 2.8-1.8.2-4.4 1.2-5.7 2.2-1.3 1.1-5 2.5-8.3 3.2-3.2.8-8.3 2.2-11.3 3.1-3 1-7.4 2.1-9.7 2.5-2.4.4-4.3 1-4.3 1.3 0 .9-7.4 3.7-13.5 5.2-2.7.6-6.4 2-8.1 3.1-1.7 1-4.3 1.9-5.8 1.9-1.4 0-9.7 3.4-18.4 7.5s-16.8 7.5-17.9 7.5c-1.2 0-4.2 1.7-6.6 3.8-2.4 2.1-6.6 4.6-9.3 5.7-2.7 1-6.5 3-8.4 4.5-15.7 11.9-14.1 11.1-22.2 10.9-4-.1-10-.6-13.3-1.1-3.3-.5-13.4-1.1-22.5-1.2-19.2-.2-32.2-1.2-36.5-2.7-2.2-.8-5.4-.9-11-.1-9.4 1.1-23.9.2-27.5-1.8-2.5-1.4-6.3-1.4-34.5-.6-16.1.5-19.5-.2-25.2-5.4-2.8-2.5-5.4-6.1-6.3-8.4-2.3-6.2-6.9-13.3-12.7-19.5-4.1-4.4-5.3-6.5-5.8-10.1-1-6.3-2.7-9.2-7.2-11.7-2.1-1.2-4.9-3.6-6.1-5.3-1.3-1.7-5.3-4.6-9-6.4-3.7-1.8-9.4-4.7-12.7-6.4-5.9-3-7.3-3.5-19-7.4-3.3-1.1-6.9-2.5-8-3.1-4.2-2.2-14.2-4.7-18.8-4.7-6.2 0-6.8-1.7-2.3-6.6 2-2.2 3.6-4.1 3.6-4.4 0-.3 2-3.2 4.5-6.5s4.5-6.9 4.5-8.1c0-1.1 1-2.9 2.1-4 1.2-1 4.3-5.1 6.9-8.9 2.7-3.9 7.3-9.4 10.4-12.4 3-2.9 5.8-6.3 6.2-7.4.7-2.1 1.6-3.3 9.7-12 10.6-11.5 5-23.4-9.9-21.1-5.9.8-10.6 4.1-11.6 8-.4 1.8-3.2 5.4-6.4 8.5-3 3-6.7 7.4-8.1 9.9-2.4 4-8.9 11.3-11.1 12.2-.4.1-2.1 3-3.6 6.3-1.6 3.3-4.9 7.9-7.4 10.2-2.4 2.4-4.2 4.8-3.9 5.5.5 1.5-2.4 6-6.5 10.1-1.5 1.6-4.2 5.8-6 9.5-1.8 3.7-4.5 7.7-6 9-1.6 1.3-2.8 2.9-2.8 3.5 0 .7-1.5 2.8-3.3 4.7-1.7 2-3.8 5.4-4.6 7.5-.8 2.2-3.5 6.5-6.1 9.5-2.6 3-6.9 8.2-9.5 11.5-2.6 3.3-7.9 8.9-11.7 12.5-3.7 3.6-6.8 7-6.8 7.7 0 .7-1 1.8-2.2 2.4-1.3.7-4.9 3.4-8.1 6.1-3.2 2.6-6.4 4.8-7.2 4.8-.7 0-5.3 3.8-10.2 8.5-13.7 13.2-15.2 14.4-19.3 15.5-3.9 1-7 3.3-7 5 0 1.3-5.4 4-7.8 4-1.1 0-3.6 1.1-5.6 2.5-3.3 2.2-4.7 2.5-12.9 2.5-12.2 0-18.9-1.2-26.7-4.8-3.6-1.6-8.5-3.8-11-4.7-2.5-.9-5.8-2.7-7.5-3.9-1.6-1.2-5-3-7.4-4-2.5-.9-7-3.7-10.1-6-3.1-2.4-7.7-5.5-10.3-7-2.6-1.6-4.7-3.1-4.7-3.5 0-.4-1.5-1.5-3.2-2.5-4.5-2.6-12.5-10.3-15.5-15-1.4-2.2-5.4-7-8.9-10.7-3.5-3.8-6.4-7.7-6.4-8.7 0-1.1-.9-3.1-2-4.5s-2-3.2-2-4c0-.8-1.5-3.4-3.4-5.6-1.9-2.3-4.2-6.7-5.1-9.8-.9-3-2.2-6.5-3-7.7-.7-1.2-2.7-5.5-4.4-9.7-1.6-4.2-4.1-9.3-5.5-11.4-1.4-2.1-2.6-4.6-2.6-5.6s-.4-2.1-1-2.4c-.5-.3-1-1.8-1-3.3-.1-1.5-.7-3.8-1.5-5.2-.8-1.4-1.4-4.5-1.5-6.8 0-4.2-2.1-13.3-4-17.7-.5-1.1-1.1-3.6-1.5-5.5-.3-1.9-1-5.8-1.4-8.5-.5-2.8-1.4-6.4-2.1-8-2.3-5.7-3.7-12.6-3.3-15.8.8-7-5.7-16.7-11.1-16.7-3.1 0-7 5.9-8.6 12.8-1.5 6.4-.5 24.9 1.6 30.2.8 1.9 1.8 6.5 2.3 10.1.5 3.7 1.6 8 2.5 9.7.9 1.7 1.6 5.5 1.6 8.6 0 3.9.8 7.2 2.9 11.8 3.6 7.7 5.5 14.8 4.4 15.9-.8.7-11.1 3-19.8 4.3-2.2.4-7.8 1.9-12.5 3.3-7.4 2.4-9.2 3.5-13.9 8.2-4.7 4.8-5.9 5.5-9.9 5.8-2.5.1-7 1.4-9.9 2.8-2.9 1.4-5.8 2.5-6.4 2.5-.6 0-3.4 1.1-6.2 2.3-2.9 1.3-6.8 2.7-8.7 3.1-1.9.3-4.6 1.7-6 3-1.4 1.3-5.2 3.3-8.5 4.4-3.3 1.1-7.8 2.9-10 4.2-2.2 1.2-7.4 3.6-11.5 5.2s-8 3.2-8.6 3.4c-.8.4-1.2-2.5-1.4-9.5-.1-5.6-.2-11.3-.2-12.9-.1-1.5.7-8.1 1.6-14.7 1-6.6 1.9-16.1 2.1-21 .1-5 1.2-15.5 2.4-23.5s2.8-22.8 3.7-33c.9-10.4 2.2-19.9 3-21.6.8-1.8 1.4-5.4 1.3-8-.1-4.7-.1-10.9.1-15.7.4-12.6.9-17.6 1.8-20 .6-1.5 1.2-6.9 1.3-12 .1-5 .5-10.6 1-12.2 1.1-4.1 1.6-9.2 2.9-29.5 1.2-19.5 2.2-28.4 4.4-38 .9-3.6 1.5-10.2 1.6-14.7 0-7.5 1.1-13 2.8-14.3 1.3-.9 3-6.8 2.3-7.9-.9-1.3 1.1-17.1 2.3-19 .5-.8 1.1-5.1 1.4-9.5.3-5.9 1.1-9.3 2.8-12.6 2.2-4.3 2.7-7.9 3.9-25 .2-3 .8-6.9 1.4-8.5 1.8-5.4 4-13.9 4.6-18 .7-4.4 4.5-21.7 7.4-33.5 1-4.1 2.7-9.5 3.9-11.9 1.2-2.5 2.2-6 2.2-7.8 0-1.9 1.1-5.9 2.4-9.1 1.3-3.1 2.7-7.7 3.1-10.2.4-2.5 1.5-6.3 2.5-8.5.9-2.2 2-7.5 2.4-11.8.4-6 1.4-9.5 4-15 5.7-11.8 8.4-18.9 9.1-24.2.5-2.8 1.6-6.6 2.6-8.5 1.1-1.9 2.1-5 2.5-7 1-6.6 3.5-13.8 6-17.1 1.3-1.8 2.9-5.2 3.4-7.4.6-2.2 2.4-6.9 4-10.5 1.6-3.6 3.1-7.7 3.4-9.2.4-1.5 2.4-4.7 4.5-7.2 2.2-2.5 4.7-6.8 5.6-9.6 2.4-7.2 13.7-29.2 17.4-33.9 1.7-2.1 3.1-4.8 3.1-5.9 0-1 .9-3.1 2.1-4.6 1.1-1.4 2.5-4.1 3-5.9.5-1.8 2.5-5.2 4.4-7.4 1.9-2.3 3.5-4.8 3.5-5.6 0-.9.5-1.9 1.1-2.3.6-.3 3.5-4.3 6.4-8.8 2.9-4.4 6.2-9 7.5-10.1 1.2-1.1 3.4-3.8 4.8-6s6-7.3 10.3-11.3c4.4-4.1 7.9-8 7.9-8.8 0-2.3 22-23.8 26.3-25.8 2-.9 4.4-2.8 5.3-4.1.9-1.3 3-2.9 4.8-3.5 1.8-.6 4.7-2.5 6.4-4.3 1.8-1.7 5.3-5.1 7.9-7.4 2.7-2.3 7.1-6.2 9.9-8.7 2.8-2.5 5.7-4.6 6.4-4.6 2.2 0 9-4.3 9.5-6.1.8-2.5 9.4-10 14.1-12.4 8-4 16.5-10.3 27.8-20.6 4.5-4.1 9.5-7.1 20-12 1.6-.8 7.1-5.5 12.2-10.5 6.2-6.1 11.7-10.5 16.7-13.2 4-2.2 9.4-5.6 11.8-7.4 2.4-1.9 5.8-3.9 7.4-4.6 1.7-.7 5.2-3.3 7.9-5.9 2.7-2.5 7.2-5.6 10-6.8 2.8-1.3 8-4.6 11.6-7.4 3.6-2.8 7.6-6 9-7.1 1.4-1.1 3.1-2 3.8-2 2.2 0 7.5-3.1 12.7-7.5 2.8-2.3 6.6-4.7 8.5-5.5 1.9-.7 5.2-2.6 7.2-4.1 2-1.6 4.1-2.9 4.5-2.9.5 0 3-1.4 5.6-3 2.6-1.7 5.5-3 6.5-3 .9 0 3.7-1.8 6.2-4 2.4-2.3 5.6-4.4 6.9-4.7 1.4-.4 4.3-1.9 6.5-3.5 2.1-1.5 4.8-2.8 5.8-2.8s3.3-1.5 5.1-3.4c1.8-1.9 5-3.9 7.2-4.6 4.2-1.3 13.9-6.4 16.7-8.7.9-.8 4.9-2.5 8.9-3.9 4-1.3 10.5-4.2 14.4-6.4 4-2.2 8-4 9-4s3.2-1 4.9-2.3c3.5-2.6 10.6-6 16.9-8.2 3.9-1.3 14.9-6.2 18.7-8.4 4.7-2.6 6.3-3.1 9.7-3.1 2.1 0 4.5-.7 5.6-1.7 1.5-1.5 6.1-3.2 10.8-4.2.4 0 1.1.5 1.6 1.1zM162 1351.1c0 .5-.4.9-1 .9-.5 0-1-.7-1-1.6 0-.8.5-1.2 1-.9.6.3 1 1 1 1.6zm158 163.5c0 1.5 2.6 6.5 3.7 7.3 1.3.9 7.6 12.9 9.7 18.5 1.9 5 9.6 14.8 17.4 22.1l9.2 9.2c3.9 4 9.7 8.8 12.8 10.7 3.1 1.8 7.5 5.1 9.7 7.2 2.3 2.2 5.9 4.5 8 5.3 2.2.7 7.4 3.5 11.6 6.1 4.1 2.6 9.7 5.5 12.5 6.4 2.7.9 6.9 2.8 9.4 4.2 6.6 3.8 15.9 7.4 19.1 7.4 1.4 0 4.3.7 6.2 1.5 2 .8 5 1.5 6.6 1.5 1.6 0 3.3.5 3.7 1.1.5.8 3.6.9 10.3.5 7.5-.6 10.5-1.3 13.8-3.2 2.3-1.3 5.8-2.4 7.8-2.4 3.4 0 8.5-2.6 11-5.6 1.1-1.3 8.5-5.4 9.8-5.4.4 0 4.7-3.3 9.4-7.3 4.7-3.9 10-8.2 11.8-9.4 1.8-1.2 4.3-3.6 5.5-5.2 1.2-1.7 2.6-3.1 3.1-3.1 2.1 0 8.1-5.5 10.5-9.7 1.7-2.7 3.3-4.3 4.6-4.3 3.5 0 23.6-18.3 28.1-25.7 1.5-2.2 3.8-5.3 5.2-6.7 1.4-1.4 2.5-2.9 2.5-3.3 0-.4 1.4-1.7 3.1-2.8 3.3-2.2 5.9-6.3 5.9-9.4 0-1.3 1.2-2.7 3-3.6 1.7-.9 3-2.2 3-2.9 0-3.2 4.1-2.6 19.5 2.6 3.3 1.1 7 2.6 8.2 3.4 1.2.8 2.9 1.4 3.8 1.4.8 0 3.9 1.1 6.7 2.5 2.9 1.4 7.1 3 9.3 3.6 2.1.6 4.4 1.7 5 2.4.5.7 3.3 1.8 6 2.5 2.8.8 7.1 2.7 9.7 4.4 2.6 1.7 7.2 4.6 10.3 6.5 5.3 3.4 5.4 3.6 4.9 7.2-.5 2.8 0 5.1 2 9.5 1.4 3.1 3.3 6.2 4.1 6.8.9.6 2 4 2.6 7.6 1.3 8.5 3.6 16.4 6.1 22 2.7 6 2.6 10.1-.6 14.3-1.4 1.8-2.9 4.8-3.2 6.6-.4 1.7-1.1 3.4-1.5 3.7-.5.3-.9 1.7-.9 3.1 0 1.7-1.9 4.6-5.9 8.9-3.3 3.6-6.6 8-7.5 9.9-1.4 3-8.3 9.5-10 9.5-1 0-6.6 4-10.6 7.6-1.9 1.7-5.6 4.3-8.1 5.7-2.5 1.4-5.3 3.7-6.2 5-1 1.6-2.9 2.6-5.5 3.1-2.5.4-6 2.2-9.3 4.8-5.7 4.5-19 11.8-21.5 11.8-2.9 0-9.9 3.9-15.2 8.4-3.2 2.7-6.4 4.6-7.8 4.6-1.3 0-6.3 1.6-11.1 3.5s-9.6 3.5-10.8 3.5c-2.6 0-27.7 6.4-33 8.4-2.2.8-7 1.5-10.7 1.6-4.9 0-8 .6-12 2.5-3.2 1.5-7.1 2.5-9.9 2.5-2.5 0-7.9.9-12.1 2-4.1 1.1-10.1 2.2-13.4 2.6-3.2.4-7.2 1.3-8.7 2.1-1.6.8-6.9 1.6-12 1.8-11.4.5-18.2 1.3-22.6 2.5-1.9.5-4.5.7-5.7.4-1.3-.3-3.9-.1-5.9.6-2.6.9-4.4.9-6.3.1-1.5-.5-6.5-1.2-11.2-1.5-18.5-1.1-25.6-1.8-28.5-2.6-1.6-.5-7.4-.9-12.7-.9-6.8 0-10.6-.4-12.7-1.5-1.8-1-5.2-1.5-8.6-1.5-3.9.1-6.1-.3-7.4-1.5-.9-.9-3-1.6-4.5-1.6-3.3 0-15.4-2.6-21.1-4.6-2.2-.7-5.8-1.4-8-1.6-2.2-.1-5.3-.7-7-1.4-1.6-.6-5.1-1.5-7.7-1.8-2.6-.4-5.7-1.6-7.1-2.6-1.3-1-5.5-2.6-9.3-3.5-3.8-.9-9.4-2.2-12.4-3-3-.8-8.3-1.6-11.8-1.9-3.4-.3-7.2-1.2-8.5-2-1.2-.7-3.9-1.9-5.9-2.6-2.1-.6-3.8-1.6-3.8-2.1s-.5-.9-1.1-.9c-1.8 0-19.3-7.2-21-8.6-.8-.8-1.9-1.4-2.3-1.4-.4 0-1.9-.9-3.4-2-1.4-1.1-5.6-3-9.4-4.1-4.3-1.3-7.2-2.8-7.9-4.1-1.3-2.4-6.7-5.8-9.4-5.8-1.1 0-2.9-.8-4-1.8-4.2-3.6-12.5-14.5-12.5-16.4 0-1.1-1.4-3.7-3-5.8-1.7-2.1-3.5-5.4-4.1-7.2-.6-1.8-1.3-4-1.6-4.8-.3-.8-.7-2-.9-2.7-.1-.6-1.4-2.7-2.8-4.6-1.5-1.9-2.7-4.8-2.7-6.3v-12.1c.1-5.1 0-9.6-.1-10-.3-.8 1.7-7.9 3.3-12.1.5-1.3.9-3 .9-3.8 0-1.7 5.9-9.2 9.9-12.8 1.3-1.1 4.3-4 6.5-6.3 2.3-2.3 6.6-5.5 9.6-7.1 3-1.6 7.1-3.8 9-5 7.1-4.2 17.6-9.1 22-10.2 2.4-.7 5.5-2 6.8-3.1 1.4-1 2.9-1.9 3.4-1.9s3.7-1.3 7.2-3c3.5-1.6 8.5-3.4 11-4 2.6-.6 6.4-2.2 8.5-3.6 2.1-1.3 5.1-2.7 6.6-3 1.5-.3 4.5-1.4 6.6-2.4 2.1-1.1 5.5-1.9 7.6-1.8 3.7.1 14.7-3.4 20.8-6.6 1.7-.9 5.3-1.6 8.1-1.6s7.1-.7 9.5-1.6c2.4-.9 6.4-1.9 8.9-2.3 4.2-.7 4.7-.5 7.2 2.3 1.5 1.7 2.7 3.6 2.8 4.2zm1076.1 29.3c2.4 1.1 7.2 2.4 10.6 3.1 3.5.6 8.2 1.9 10.5 3 2.9 1.3 5.6 1.7 8.3 1.4 3.2-.5 4.6-.1 7.4 2 2.2 1.6 4.8 2.6 6.9 2.6 1.8 0 4.3.5 5.4 1.1 1.2.6 5 1.5 8.5 1.9 3.7.5 7.3 1.6 8.3 2.5 1.8 1.6 9.8 4.8 19 7.6 1.9.6 4.3 2 5.3 3s2.4 1.9 3.2 1.9c.8 0 1.8.6 2.2 1.2.4.7 2.9 2.4 5.6 3.7 2.6 1.3 4.7 2.7 4.7 3.1 0 .4 1.9 1.3 4.1 2 2.8 1 5.6 3.1 8.7 6.7 2.5 2.9 5.1 5.3 5.8 5.3 2.5 0 7.1 5 8.4 9 .8 2.3 1.9 4.4 2.5 4.7 2.2.8 5.8 6.6 6.2 10.1.3 2 1.2 4.7 2.1 6.1 2.5 3.7 4 15.2 2.7 20.3-.5 1.8-.1 4 1 6.4 1.3 2.8 1.5 4.2.6 6-.7 1.6-.7 4-.1 7.5.8 4 .7 5.7-.5 7.9-.8 1.6-1.5 3.8-1.5 5 0 1.1-.4 2-.8 2-1.9 0-7.3 6-8.2 9-1 3.5-.2 5.6 3.9 10.2 2.3 2.6 2.3 2.8.5 3.4-1 .4-4.1 1.6-6.9 2.9-2.7 1.2-6.8 2.6-9 3.2-2.2.6-7.8 2.1-12.5 3.4-4.7 1.2-11.2 3.5-14.4 5.1-5.9 2.8-14.1 5.1-24.6 6.8-3 .5-8 1.6-11 2.5-3 .9-9.8 2-15 2.5-5.2.6-11.7 1.4-14.4 1.9-2.7.4-5.7.6-6.7.4-1.6-.5-7.2.3-20.4 2.7-9 1.7-25.3 3.3-43 4.4-4.9.3-12.5 1.1-17 1.8-4.4.7-10.2 1.1-13 1-2.7-.1-10.8-.1-18 0-7.1.1-18.2.1-24.5 0-6.3-.1-14.6-.1-18.5 0-8.2.1-10 0-22.5-.7-24-1.5-57.1-.8-64.5 1.2-2.2.6-9.8 1.2-17 1.3-7.1.1-14.8.3-17 .3-8.5.2-20.1-.7-21.3-1.6-1.5-1.2-14.3-2.4-33.1-3.2-7.4-.4-14.2-1-15.2-1.6-1-.5-2.6-.9-3.7-.9-1 0-2.9-.9-4.2-2-2.8-2.4-4-2.7-14-3.4-4.1-.3-11.1-1.6-15.5-2.8-4.4-1.2-10.9-2.2-14.5-2.3-4.5-.1-7.9-.8-11-2.3-2.5-1.2-5.4-2.2-6.5-2.2-1.2 0-3.8-.9-6-2s-5.2-2-6.7-2c-2.9 0-15.2-5.7-20.3-9.5-1.6-1.2-4.8-3.1-7-4.2-9.2-4.5-13.9-7.4-15.2-9.2-.7-1.1-3-3-5-4.3-5-3-20.3-18.4-20.3-20.2 0-.8-1.6-2.7-3.5-4.2-5.9-4.5-8.5-12.1-8.5-25 0-7.7.4-10.3 2.4-14.6 1.3-2.9 2.7-6.9 3.1-8.8 1.4-6.4 12.1-16.5 24.3-22.7 4.3-2.2 9.1-5.2 10.6-6.7 1.6-1.4 3.5-2.6 4.4-2.6.8 0 2.7-1.1 4.4-2.5 1.6-1.4 4.2-2.8 5.6-3.2 1.5-.3 4.6-1.9 6.9-3.5 2.3-1.5 4.8-2.8 5.6-2.8 1.3 0 6-1.8 14.2-5.4 8.7-3.9 14.5-5.6 18.5-5.6 2.5-.1 6.3-.9 8.5-2s5.1-1.9 6.5-2c1.4 0 4.3-1 6.5-2.1 5.6-3.1 14.7-5 24-5.3 5.1-.1 9.3-.8 11.4-1.9 1.9-.9 4.6-1.7 6-1.7 1.4-.1 4.9-.9 7.8-1.8 6.2-2.2 8.9-2.1 17 .8 5 1.7 7.4 2 11.8 1.5l5.5-.7v3.3c0 1.9.5 5 1 6.9.6 1.9 1.7 6.4 2.5 10 .8 3.6 2.1 9.4 3 13 .9 3.6 2 8.4 2.5 10.7 1.6 6.8 6 15.1 10.5 19.6 2.3 2.3 4.5 5.1 4.9 6.3.3 1.1 3.8 5.4 7.6 9.4 3.9 4.1 7 7.7 7 8.1 0 .3 1.5 1.2 3.3 2 1.7.7 4.6 2.3 6.3 3.6 1.7 1.3 3.8 2.1 4.6 1.8.8-.3 2.8.1 4.4 1 1.6.8 4 1.5 5.4 1.5 1.4 0 5.2.7 8.5 1.5 6.5 1.7 23.4 2.3 25.6.9.8-.5 4.1-.9 7.4-1 3.3 0 6.9-.5 8-1.1 1.1-.6 4.9-2.4 8.5-4 9.4-4.3 16.9-8.1 21.5-10.8 2.2-1.3 4.7-2.4 5.5-2.4.8-.1 3.1-1 5-2.1s6.4-3.4 10-5.1c6.3-3.1 16-9.3 17-10.8.3-.5 2.3-1.9 4.6-3.2 5.2-3.1 15.1-10.2 21.5-15.5 2.8-2.3 7.8-5.7 11.2-7.5 7.7-4 11.9-7.1 17.7-13 2.5-2.5 7.4-6.5 11-8.9 7.3-4.9 11.7-9 14.5-13.5 1.9-3.2 3.7-4.6 7-5.7 3-.9 2.9-.9 7.6 1.1zm-658.4 71.3c1.3 1.2 2.3 2.7 2.3 3.4 0 .7 1.3 2.8 2.9 4.7 1.6 1.8 3.3 4.5 3.6 6 .4 1.4 2.3 4.1 4.2 5.9 1.9 1.8 4.4 5.3 5.6 7.8 1.2 2.5 2.3 4.8 2.5 5.3.4.8-14 .2-18.1-.8-4.1-1.1-12.6 2-17 6.1-3.2 3-3.7 4.1-3.8 8.2-.3 7.8.2 11.6 1.8 14.1 2.4 3.7 2.9 14.3.9 16-1.3 1.1-2 1.1-3.9-.2-1.3-.8-5.2-1.7-8.8-2-7.7-.6-17.7-2.2-20.2-3.2-.9-.4-3-.3-4.5.3s-4.8 1.3-7.4 1.7c-8.2 1.1-10.6 7.9-8.3 24 1.2 8.4 0 12.8-4.4 16.2-2.8 2.1-8.7 1.5-11.9-1.2-4.1-3.5-6.5-4.2-16.8-5-8.7-.7-9.2-.6-11.9 1.7-2.3 2-2.9 3.5-3.3 8.1-.4 4.7 0 6.5 2.1 10.5 1.4 2.6 2.7 6.6 2.8 8.7l.4 4H618c-18.9 0-30.5-1.4-39-4.5-11.4-4.2-14.8-4-19.4 1-5.5 6.1-4.8 12.6 2.6 24.3 4.6 7.3 3.8 8.1-8 7.3-8.8-.6-16.9-2.3-23-4.7-1.3-.5-3.2-.9-4.3-.9-1 0-3.7-1.3-5.8-2.8-5.1-3.7-16.5-5.8-23.1-4.3-12 2.7-22.1 10.4-30.3 23l-3.5 5.3-1.9-2.2c-3.6-4.4-4.5-5-7.4-5-4 0-6.8-1.5-10.4-5.6-2.9-3.3-3.1-3.4-7-2.3-4.5 1.3-16.8-.4-19.5-2.6-.8-.7-4.1-2-7.2-2.9-3.1-.9-6-2.1-6.3-2.6-1.5-2.4-8.3-4.9-11.7-4.4-2.3.4-4.6 0-6.8-1.1-5.6-2.9-10.8-2.2-21.3 2.9-5.2 2.5-9.6 4.6-9.9 4.6-.3 0-.8-.9-1.1-1.9-.4-1.6-1.1-1.9-4.6-1.4-4.8.7-7.6-.8-11.1-6-1.6-2.3-3.5-3.7-5.5-4.1-1.6-.4-3.7-1.5-4.5-2.6-1.9-2.5-13.2-5.4-18-4.6-2 .3-7.9 2.9-13 5.7-5.2 2.8-11.5 5.9-14.1 6.8-2.6 1-6.5 3.3-8.8 5.1-3.5 2.9-4.5 3.2-6.8 2.4-1.7-.6-3.5-2.5-4.7-5.1-1.1-2.2-3.3-4.9-4.8-5.8-1.5-.9-2.8-2.1-2.8-2.7 0-.6-.7-1.9-1.6-2.9-.9-1-2.6-3.7-3.9-6.1-2.9-5.5-8.8-9.7-13.6-9.8-4.4 0-12.5 4.1-17.7 9.1-5.3 5.1-5.6 5.2-9.6 2.8-2.9-1.7-4.6-2-8-1.5-5.4.8-6 .1-8.7-9.4-2.3-8.6-4-11.3-8.6-14.1-2.8-1.7-4.4-2-8-1.5-3.7.5-5.6.1-10.1-2-4.5-2.2-6.3-2.5-9.6-1.9-2.3.5-7.9.9-12.6.9l-8.4.1.3-4.9c.1-2.7.6-5.9 1-7 1.3-3.3-.4-15.8-2.3-17.1-.9-.7-1.6-1.6-1.6-2 0-.4-1.8-2.5-3.9-4.6-3.8-3.6-25.5-15-31.6-16.5-1.4-.3-2.7-1-3-1.4-.9-1.5 1.3-5.6 5-9.6 2.1-2.1 4.5-5.5 5.5-7.5 1-1.9 3-4 4.5-4.7 1.7-.8 3.5-3.2 5.5-7.6 2.6-5.9 5.1-8.6 7.9-8.6.6 0 1.5 1.9 2.1 4.2 1.9 7.7 4.3 13.2 7.6 17.8 1.8 2.6 4.7 7.4 6.4 10.8 1.7 3.5 4.5 7.3 6.6 8.8 1.9 1.5 4 3.7 4.7 4.9 1.7 3.3 11.8 11.5 14 11.5 1 0 4.2 2.2 7 4.9 6.1 5.7 7.8 6.6 13.4 7.6 2.2.3 4.9 1.5 5.9 2.7 2.5 2.7 9.6 5.8 13.4 5.8 3.1 0 9.5 3.1 15.7 7.7 2.1 1.5 5.3 2.6 8.5 2.9 2.9.4 7.8 1.5 10.9 2.5 3 1 6.6 1.9 8 1.9 1.3 0 4 1 5.9 2.2 2.6 1.5 5 2.1 9 2 4.5-.1 6.9.5 13.6 3.8 4.4 2.2 9 4 10.2 4 1.2 0 4.3.9 7 1.9 2.7 1.1 7.8 2.3 11.3 2.7 3.5.4 7.6 1.3 9.1 2 1.5.8 4.1 1.4 5.8 1.4 1.7 0 4 .4 5 1 1 .5 3.3 1 5.1 1.1 1.9.1 5.7.8 8.4 1.5 2.8.8 8.2 1.4 12 1.3 9-.1 19 1.4 23.8 3.5 2.9 1.3 4.6 1.4 7.1.7 1.9-.5 3.9-.5 4.7 0 2 1.2 9 1.1 12.8-.2 2.4-.8 5.2-.8 10.9 0 4.2.7 10.6 1.2 14.2 1.3 12.3.3 36.2-1.2 38.3-2.4 1.2-.7 6.3-1.6 11.2-1.9 9.7-.8 30.3-4.1 35.7-5.8 4.9-1.5 28.9-6 31.9-5.9 3.8.1 12.7-2.1 17.4-4.2 6-2.7 10.4-4 13.9-4 1.8 0 3.6-.4 4.2-.9.5-.4 4.7-1.8 9.4-3 5-1.4 15.1-5.5 24.5-10.1 8.8-4.3 17.2-8.1 18.7-8.4 1.5-.3 3.3-1.2 4-2 1.5-1.5 11.3-6.6 16.7-8.7 1.9-.7 4.9-2.7 6.7-4.5 1.8-1.7 5.7-4.4 8.6-5.9 2.9-1.5 8.1-5.2 11.6-8.1 3.5-3 6.7-5.4 7.2-5.4.6 0 3.5-2.3 6.5-5 3-2.8 6-5 6.6-5 .7 0 4-2.5 7.5-5.6 4.6-4 6.7-6.7 7.5-9.5.7-2.1 1.6-3.9 2-3.9.5 0 2.8-2 5.1-4.5 3.2-3.4 4.7-6.2 6.3-11.8 1.3-4.3 3.5-9.1 5.3-11.3 1.7-2.1 3.4-5.1 3.7-6.7.9-3.3 2.1-3.4 5.2-.5zm154.3 36.1c0 6.8 4.4 17.8 13.3 33 2.8 4.7 5.2 7.5 8.1 9.2 2.2 1.4 5.6 4.6 7.5 7.2 3.6 5.1 13.9 13.1 22.3 17.3 2.7 1.4 5.7 3.5 6.6 4.6 1 1.1 4.4 3.8 7.7 5.9 3.3 2.1 7.8 5.1 10 6.5 2.2 1.5 5.8 3.3 8 4 2.2.7 5.4 2.1 7.1 3.1 1.7 1.1 4.2 1.9 5.5 1.9 2.1 0 11 2 28.9 6.5 6 1.5 13.4 2.7 19 3 1.9.1 5.8.8 8.5 1.4 2.8.7 7 1.7 9.5 2.2 2.5.6 5.3 1.8 6.3 2.7 3.5 3.2 6.7 3.8 13.5 2.9 4.2-.6 7.7-.6 10.1.1 9.2 2.7 12.2 3.2 17.5 3.2 3.3 0 7 .7 8.8 1.6 4.8 2.5 19 3 50.3 1.9 15.7-.6 35-2.1 36.2-2.8.7-.4 12.6-.8 26.6-.8 23.2-.1 26 .1 32.3 2.1 5.8 1.7 8.4 2 15.9 1.5 5-.4 11.3-1.1 14-1.6 3-.6 7.5-.6 11.4-.1 3.5.5 7.3.8 8.5.6 1.1-.2 2.8-.5 3.6-.6.8-.1 3.6.1 6.1.6 3.4.6 6.4.3 11-1 4.9-1.3 10.8-1.7 25.4-1.9 10.5-.1 19.7-.4 20.5-.8 2.5-1 27.9-4 37.3-4.3 5.4-.2 10.1-.9 12-1.9 1.7-.9 6.5-1.8 10.7-2.1 4.1-.3 8.2-1 9.1-1.4.9-.5 4.9-.8 9-.7 7.2.3 11-.5 15.7-3.2 1.3-.7 5.4-1.4 9-1.6 3.7-.1 8.5-.9 10.7-1.8 2.2-.8 9-3.1 15.2-5.1 6.1-2 12.4-4.3 14-5 2.5-1.3 7.8-2.6 17.2-4.1l3.3-.5-1.6 2.5c-2.1 3.1-2.1 9.8 0 11.6.8.7 2.2 2.6 3.1 4.3.9 1.7 2.9 4.6 4.4 6.4 2.3 2.6 2.7 3.8 2.2 6.5-1.6 8.9-12.8 13.8-31.6 13.8-1.6 0-5.5.6-8.6 1.3-4.2 1-6.3 1.1-7.7.3-1-.6-3.6-1-5.6-.8-2.1.1-3.8-.3-3.8-.8 0-1.3-8.5-5.4-12-5.8-1.6-.2-3.4.5-4.9 1.8-2.6 2.5-4.5 2.3-19.2-2l-6.7-1.9-3 2.1c-3.1 2.2-4.6 5-7.9 14.5-1.2 3.7-2.6 5.8-4.4 6.7-1.5.8-9 1.9-17.5 2.5-17.3 1.2-22.2.7-40.4-4.4-3-.9-6.8-1.6-8.4-1.6-1.6 0-4.8-.9-7.1-2-2.2-1.1-6.3-2.3-9-2.6-2.8-.4-6.8-1.7-9.1-3-2.2-1.3-5.1-2.4-6.3-2.4-1.2 0-4-.9-6.3-2.1-3-1.5-5.1-1.9-8.2-1.5-2.3.3-4.7.7-5.4.8-2.7.3-7.6 8.1-8.2 12.7l-.5 4.5-5.3.4c-3.1.2-7.2-.3-10-1.2-2.6-.8-7.6-2.2-11.2-3.1-3.6-.9-8.5-3-10.9-4.7-2.4-1.7-6-3.5-8-3.9-2-.4-5.5-1.5-7.9-2.3-3.7-1.4-5.2-1.5-10.3-.4-8.5 1.7-11.7 5.3-12.5 13.8-.9 8.6-2.2 10-9.5 10-3.2 0-6.9-.4-8.4-1-1.9-.7-3.6-.6-6.2.5-4 1.7-9.7 1.3-16.7-1.1-2.1-.8-5.3-1.4-7.1-1.4-4.6 0-10.3-2.8-15.2-7.6-2.7-2.6-5.9-4.5-9-5.4-6.2-1.8-18.6-1.5-23.6.5s-16.6 10.8-18.9 14.3c-2.5 3.9-12 12.2-13.9 12.2-.9 0-4.3-1.4-7.7-3-5.8-3-10.2-7.9-10.2-11.5 0-2.5-11.9-15.3-15.3-16.5-1.8-.6-4.4-2.7-6-5.1-3.3-4.9-12.5-9.5-16.6-8.4-1.4.4-5.7.7-9.5.6-5.6-.2-7.3.2-9 1.7-4.2 4-16.3 9.2-21.1 9.2-2.5 0-4.5-.5-4.5-1 0-.6-1-1.4-2.3-1.9-3-1.2-7.3-7.5-8.7-12.9-.6-2.3-1.5-4.2-2-4.2s-3-1.8-5.5-4-5.7-4.3-7-4.6c-1.3-.3-5.9.5-10.7 2-8.1 2.6-8.3 2.6-10.8.8-1.4-1-3.7-2.2-5.1-2.5-3-.8-3.5-2.5-3.8-12.2-.3-7.8-3-13.9-7.1-16-8.2-4.2-15-4.8-20.5-1.7-1.1.6-4.6 2.3-7.7 3.7-3.2 1.5-5.8 3-5.8 3.5 0 1.3-8.8 5-11.6 5-2.1 0-2.4-.5-2.4-3.5 0-4.6 1.5-7.7 5-10 1.5-1 4.2-4.6 5.8-7.9 2.9-5.9 3-6.4 2.3-15.1-.5-6-1.4-10-2.6-12-3.6-5.7-8.6-11.5-10.1-11.5-.8 0-3.9-1.4-6.9-3.1-5.2-2.9-5.5-3.3-5.5-6.9 0-3.3.6-4.3 4-7 2.2-1.7 4-3.8 4-4.5 0-.7 1.6-2.2 3.5-3.4 2-1.1 3.8-2.8 4.2-3.7.9-2.5 2.3.4 2.3 4.9zm685.8 6.1c5 5.4 5.6 9.1 1.7 10.6-4.4 1.7-7.4 6-7.5 10.7 0 5.6 1.5 8.7 7.2 15.2 2.6 3 4.8 6.3 4.8 7.3 0 1.7 1.7 5.6 3 6.8 1.3 1.2 2.8 5.8 2.2 6.7-1 1.4-12.1 6-16.3 6.7-1.9.4-5.3 1.5-7.4 2.6-2.2 1.1-5.4 2-7.2 2-1.9 0-4.4.6-5.6 1.4-2.6 1.6-11.7 3.9-12.5 3.1-1.1-1.1 4.3-5.5 7.5-6.1 7.7-1.5 12.5-9.6 12-20.6-.2-4.6.2-6.1 2-8 4.8-5.1 8.5-20.2 8.6-34.4 0-11.8.1-11.8 7.5-4zm-979.6 121.3c.6 2.8-.3 5.3-1.8 5.3-.8 0-1.4-.1-1.4-.3 0-.1-.4-1.7-.9-3.5-.9-3-.8-3.2 1.4-3.2 1.4 0 2.5.7 2.7 1.7zM248 1823.5c0 .8-.4 1.5-1 1.5-.5 0-1-.7-1-1.5s.5-1.5 1-1.5c.6 0 1 .7 1 1.5zM424 2023c0 .5-.5 1-1.1 1-.5 0-.7-.5-.4-1 .3-.6.8-1 1.1-1 .2 0 .4.4.4 1zm8 0c0 .5-.7 1-1.5 1s-1.5-.5-1.5-1c0-.6.7-1 1.5-1s1.5.4 1.5 1z"/><path d="M911.5 833.1c-4.9.5-11.5 1.4-14.6 1.9-3 .6-8.7 1-12.7 1-3.9 0-7.4.4-7.7 1-.3.5-2 1-3.6 1-3.7 0-17.8 3.4-25 6.1-3 1-7 1.9-8.9 1.9-1.9 0-5.2.9-7.3 2-2 1.1-5.2 2-6.9 2-2 0-8.2 2.4-15.3 5.8-6.6 3.2-13.9 6.2-16.1 6.5-2.2.4-7.1 2.3-10.8 4.2-3.7 1.9-7.9 3.5-9.2 3.5-1.4 0-4.2.9-6.4 2s-5.4 2-7.2 2c-3.6 0-6.3 1.5-11.8 6.5-1.9 1.7-6 4.2-9 5.6-3 1.3-8.6 4.4-12.5 7-3.8 2.5-8.9 5.1-11.3 5.7-2.3.7-6 3-8.4 5.2-2.3 2.2-4.5 4-4.9 4-1.1 0-17.3 14.1-18.2 15.9-.5.9-4.2 4.3-8.3 7.5-7.4 6-12.6 11.2-15.5 15.7-.9 1.3-4.4 5.4-7.8 9.2-3.3 3.7-7.2 8.5-8.6 10.8-1.4 2.2-4.1 5.6-5.9 7.7-1.9 2-4.2 5.1-5.2 6.8-1.1 1.7-3.1 4.8-4.5 7-1.5 2.2-3 5.5-3.4 7.4-.4 1.9-1.1 4.1-1.5 5-4.1 7.8-5.8 15-6.5 27-.2 4.9.3 8.8 2.5 16 1.5 5.2 3.2 11.4 3.9 13.7.6 2.2 2.4 5.4 3.9 7 1.5 1.7 3.4 4.3 4.2 5.9 2.5 5 7.9 10.5 32.1 32.4 28 25.5 40.1 34.8 45.1 35 1.8 0 7.6 3.1 12.3 6.6 1.7 1.3 6.9 3.5 11.5 4.9 11.1 3.5 10.9 3.4 20.7 9.7 2.3 1.6 4.6 2.8 5.1 2.8s2.3.7 3.8 1.5c1.6.8 4.5 1.8 6.4 2.1 1.9.3 7.4 1.9 12.2 3.5 4.8 1.6 9.8 2.9 11.1 2.9 1.4 0 4.2.7 6.3 1.6 2.4 1 7.7 1.8 13.7 2 5.4.3 11.5.8 13.6 1.3 2.1.4 4.7.4 6.1-.1 1.6-.6 5.5-.6 10.8.2 5.1.7 8.8.7 9.5.2.7-.5 6.7-1.2 13.3-1.5 9.9-.6 13.1-1.1 17-3 5.2-2.5 9.6-4.2 15.4-5.9 1.9-.5 3.9-1.4 4.4-1.9.6-.5 2.4-.9 4-.9 1.7 0 4.9-1.1 7.1-2.5 2.2-1.3 5.5-2.5 7.3-2.5 1.8 0 5.9-1.3 9-3 10.8-5.6 16.7-7.8 23.2-8.5 6.1-.6 9.6-1.5 14.5-3.6 11.1-4.8 13.7-5.8 16.6-6.4 1.9-.4 4.5-1.3 5.9-2 7-3.4 12-5.5 17-7 3-.9 9.1-3.9 13.5-6.6 4.3-2.7 8.7-4.9 9.6-4.9.9 0 2.2-.7 2.9-1.5.7-.8 3.1-2 5.4-2.6 2.2-.5 6-2.4 8.3-4 2.3-1.6 4.6-2.9 5.2-2.9.6 0 2.7-1 4.8-2.2 6.8-3.8 8.8-4.8 10-4.8.7 0 2.9-1.1 4.9-2.5 2-1.4 4.7-2.5 6-2.5 1.3 0 3.3-.9 4.4-2 1.1-1.1 2.3-2 2.6-2 .3 0 1.7-.9 3.1-2 1.4-1.1 3.3-2 4.3-2 .9 0 4.2-2 7.3-4.4 3.5-2.7 7.1-4.6 9.6-5 2.5-.4 4.6-1.4 5.3-2.6.7-1.1 1.6-2 2-2 .5 0 5.5-3.4 11.3-7.5 5.8-4.1 12-8.1 13.8-8.9 1.8-.7 4.1-2.3 5.1-3.5 1.1-1.1 2.5-2.1 3.1-2.1.7 0 3-1.6 5.1-3.6 2.2-2 5.2-4.3 6.8-5.1 2.9-1.5 34.1-32.1 36.1-35.4.6-.9 2.7-3.8 4.7-6.5s3.9-6.5 4.3-8.4c.5-3.2 2.6-9.3 4.4-13 .5-.8.7-5.4.5-10.2-.2-7.4-.6-9.5-2.9-13.5-2.4-4.3-5.3-12.5-6.9-19.4-.3-1.5-2.3-4.5-4.3-6.7-4.7-5-5.1-5.6-9.4-11.7-4.7-6.8-11.9-14.5-13.6-14.5-.7 0-1.3-.3-1.3-.8 0-.4-2-2-4.5-3.5-2.5-1.6-4.8-3.4-5.3-4.1-.4-.7-2.9-2.3-5.7-3.6-2.7-1.3-6.6-3.6-8.6-5.2-2-1.5-4.1-2.8-4.7-2.8-.5 0-3.2-1.5-6-3.4-3.2-2.1-6.7-3.5-9.7-3.8-2.8-.4-5.5-1.4-6.9-2.7-1.4-1.4-4.2-2.4-7.4-2.8-3.8-.4-6-1.3-8.2-3.4-1.6-1.6-4-2.9-5.2-2.9-1.3 0-4.3-1.4-6.7-3-2.5-1.7-5.6-3.3-7-3.7-1.5-.3-3.3-1.1-4.1-1.8-.8-.6-4.9-2.2-9-3.4-17.6-5.2-17.6-5.1-29.5-6.9-2.7-.5-6.1-1.4-7.5-2.2-1.4-.7-2.5-1.2-2.5-1.1 0 .2-2.5-.5-5.5-1.4-6.5-2-19.8-3.7-29-3.6-3.6 0-8.6-.7-11.2-1.5-2.7-.9-8-1.5-12.5-1.5-4.3.1-18.4-.1-31.3-.3-12.9-.2-27.5.1-32.5.5zm45 24.4c2.8.9 7.5 1.6 10.5 1.5 3 0 11.4.3 18.5.6 7.2.4 16.4.6 20.5.5 6.9-.1 8 .2 12.5 3 4 2.5 6.7 3.4 13 4 4.4.5 8.9 1.3 10 1.8 1.1.5 3.6 1.6 5.7 2.5 2 .9 6.1 1.6 9.1 1.6 5.7 0 10.9 1.8 16.4 5.7 1.7 1.3 4.5 2.3 6.3 2.3 1.8 0 4.9 1.2 7.3 2.8 6.1 4.1 16.2 8.3 18.2 7.6 1.1-.5 2.6.3 4.4 2.3 1.5 1.7 5.4 4 8.7 5.2 3.2 1.2 7.3 2.8 9.1 3.6 1.7.8 4 1.5 5.1 1.5 1 0 3.4 1.1 5.3 2.4 1.9 1.4 6.6 4.6 10.4 7.2 3.9 2.6 7.2 5.1 7.3 5.6.2.5.9 1.4 1.5 2.1.7.6 2.5 2.9 4 4.9 1.5 2.1 3.4 3.8 4.2 3.8 1.7 0 5.8 4.8 7.4 8.9.8 1.7 1.7 3.1 2.1 3.1 1.2 0 6.7 9.4 7.5 12.8.3 1.8 1.3 4.5 2.1 6.1.8 1.6 1.7 5.1 2 7.8.6 4.4.3 5-2.5 7.8-1.7 1.7-3.8 5.2-4.6 8-1.1 3.5-2.6 5.7-5 7.5-1.8 1.4-4 3.6-4.7 4.9-.7 1.3-2.3 2.7-3.5 3.2-1.3.5-2.8 1.9-3.4 3.1-2.1 4.7-3.4 6.5-4.7 6-.6-.2-1.2.1-1.2.6s-1.3 1.2-2.8 1.5c-1.6.3-3.4 1.7-4.2 3.1-.8 1.6-2.2 2.6-3.5 2.6-2.6 0-4.5 1.8-4.5 4.2 0 1-.6 1.8-1.4 1.8-.8 0-2.5 1.2-3.8 2.7-2.3 2.7-12.8 10.3-14.1 10.3-1 0-11 6.9-11.7 8-.6 1-6.4 5-10.1 6.8-1.4.8-4.5 3.1-6.9 5.3-2.3 2.1-4.9 3.9-5.7 3.9-.8 0-2.7.6-4.1 1.4-1.5.8-3.8 1.7-5.2 2-1.4.3-5.3 2.6-8.7 5.1-3.5 2.5-6.8 4.5-7.4 4.5-1.2 0-17.1 7.7-27.9 13.5-3.5 1.9-7.4 3.5-8.7 3.5-1.2 0-2.7.9-3.3 2-.6 1.1-1.4 1.9-1.8 1.8-2.1-.7-10.7 2.9-13.2 5.4-2 2-3.8 2.8-6.3 2.8-2.1 0-4.1.7-5.1 1.9-1 1.1-2.8 2.2-4.1 2.5-1.4.4-4.1 1.7-6.1 3.1-2.6 1.8-5 2.5-8.3 2.5-6.2 0-8.9.9-9.6 3-.8 2.4-10.4 5.7-19 6.5-3.8.3-8 1.3-9.2 2.1-1.2.7-3.8 1.6-5.7 2-2 .3-6.1 1.9-9.2 3.5-3.7 2-6.4 2.9-7.9 2.5-1.6-.4-3.3.2-5.3 1.9-3.6 3-7.4 4.5-11.4 4.5-1.7 0-5.9 1.5-9.2 3.3-3.4 1.9-7.4 3.7-9.1 4.1-1.6.4-4.8 1.5-7 2.6-3.5 1.6-20.3 3.5-28 3.2-1.1-.1-12.1-.4-24.4-.7-12.3-.3-23.1-1-24-1.4-.9-.5-3.6-1.2-5.9-1.6-2.4-.4-8.1-2-12.5-3.6-4.5-1.6-8.9-2.9-9.7-2.9-1.2 0-15.1-6.5-21-9.8-4.2-2.4-6.1-3.2-7.9-3.2-1 0-4.1-1.5-6.7-3.3-5-3.4-13.7-7.7-15.8-7.7-.6 0-2-1.4-3.1-3-2-3.1-8.1-7.4-14.7-10.5-2-.9-5.9-4.2-8.6-7.3-2.7-3.1-6.7-6.6-8.8-7.7-3.3-1.7-8.5-6.7-26.3-25-1-1.1-2.8-3.9-4-6.2-1.1-2.3-2.5-4.4-3.1-4.8-.5-.3-2.5-3.9-4.5-8-3.2-6.7-3.6-8.5-3.8-17.2-.3-9.7-.3-9.9 3-14.7 1.8-2.6 3.3-5.3 3.3-5.9 0-1.7 8.1-14.9 11.7-19 1.8-2 3.3-4.2 3.3-4.9 0-.6 2.8-3.6 6.1-6.6 3.4-3.1 6.9-7.4 7.9-9.6 2.4-5.4 22.2-25.8 27.8-28.5 2.4-1.2 6.7-4.6 9.7-7.6 3-3 5.9-5.5 6.5-5.5.6 0 5.2-2.9 10.1-6.5 5-3.6 9.6-6.5 10.3-6.5.6 0 3.5-1.5 6.3-3.4 5.8-3.8 13.3-7.7 17.8-9.4 1.7-.5 6.3-2.4 10.4-4.1 4.1-1.8 9.5-3.7 12-4.3 2.5-.6 5.3-1.7 6.2-2.5.9-.7 5.6-2.7 10.5-4.4 4.9-1.7 9.4-3.5 9.9-3.9 1-.8 10.6-4.6 20-8 8.5-3 15.6-4.8 24.5-6.1 4.7-.6 10.3-1.8 12.5-2.6 2.2-.8 7.4-1.6 11.5-1.8 13.4-.6 23.4-1.6 27.8-2.7 3.3-.8 5.6-.8 9.7.2 4.4 1 6.2 1.1 9.9 0 2.5-.7 8-1.6 12.3-2 4.3-.4 8-.8 8.3-.8.3-.1 2.8.5 5.5 1.3zM1481.5 848.5c-.5.2-6.2 1.9-12.6 3.9-6.7 2.1-12.3 4.4-13.4 5.6-1 1.1-2.6 2-3.5 2-5.2 0-20.5 11.7-26 20-1.3 1.9-3 3.9-3.7 4.3-5.1 3.1-8.9 16.4-8 27.9.4 6 1.2 8.7 4.7 15.3 4.8 9.2 6.9 11.7 11.7 14 1.9.9 5.1 3.1 7.2 4.9 4.2 3.8 20.8 11 30.1 13 9.4 2 42.7.6 51.5-2.3 20.6-6.7 37.3-19.9 43.7-34.5 2.8-6.5 3-7.6 2.6-15.7-.5-7.6-1-9.6-4.1-15.2-1.9-3.6-5.1-8.6-7.1-11.1-1.9-2.6-4-6.4-4.6-8.5-.5-2.1-1.9-5-3-6.4-1.9-2.4-10.2-7.7-12.1-7.7-.4 0-3.2-1.4-6.1-3.1-6.8-4-16.7-5.9-33.3-6.4-7.1-.2-13.4-.2-14 0zM457 881c-4.1.4-8.8 1.2-10.3 1.9-1.6.6-3.9 1.1-5.2 1.1-2.9 0-13.7 4.3-27.1 10.9-8.4 4.1-10.7 5.7-13.2 9.3-1.7 2.4-3.8 5.1-4.8 5.9-2.9 2.4-8.8 11.1-11.6 16.9-4.8 10.2-5.7 13.5-6.3 23.1-.8 11.6.4 16.3 5.4 21.6 2 2.1 4.8 5.5 6.2 7.6 3.6 5.2 5.5 6.4 12.6 7.6 3.4.7 7.5 1.9 9.3 2.8 2.8 1.4 6.4 1.5 26.4 1.1 26.1-.6 27.5-.9 44.1-8.9 5.5-2.6 12.3-5.8 15.2-7 6-2.5 18.2-15.2 22-22.8 3.7-7.2 4.8-16.7 2.8-24.3-2-8-15-27.8-18.2-27.8-.3 0-2-1.1-3.7-2.3-1.7-1.3-4.8-3-6.9-3.6-2.8-.9-4.1-2.2-5.1-4.6-1.6-3.8-5.2-6-13.3-8.1-5.7-1.5-6.5-1.5-18.3-.4zM986.5 348.9c-3.5.9-8.5 3.4-13.6 6.8-3 2-4.9 5.2-12.3 20.8-7.4 15.5-8.6 18.7-7.6 20.4.6 1.2 1.5 2.1 2 2.1s1.5.6 2.2 1.3c.7.7 3.9 2.8 7.1 4.6 7 4 5.1 5.7 18.1-16.4 19.2-32.7 21.9-37.6 20.8-38.7-1.3-1.3-12.8-2-16.7-.9zM948.6 469c3.4 28.5 24 64.7 55.8 97.8 15.8 16.4 20.2 19.8 29.8 23.2 38.5 13.4 46.2 16 46.6 15.5.3-.2 0-1.7-.6-3.2-4.3-10.9-4.2-38.9.2-58.3 3.9-17.6 10.1-37.3 14.1-45.1.9-1.6 1.4-3.2 1.3-3.6-.2-.9 3.1-8.3 9.7-21.6 2.4-4.8 3.9-8.5 3.4-8.1-.5.3-2.3 3.2-3.9 6.5-1.7 3.2-3.6 6-4.3 6-.6.1-1.9.2-2.7.3-2.2.2-5.1-1.4-4.5-2.5.4-.5.4-.9.1-.9-.2 0-2.1 3-4.2 6.7-2 3.8-4.8 8.3-6.2 10-1.3 1.8-2.1 3.3-1.6 3.3.4 0 .1.6-.8 1.2-.8.7-4.7 6.7-8.5 13.3-9.7 16.7-24.5 41.3-31.3 52-3.1 4.9-7.1 11.6-8.9 14.7-1.8 3.2-3.7 5.8-4.2 5.8-1.6 0-30.2-28.7-37.5-37.7-15.6-19.1-20.9-27.1-29.2-43.9-5.1-10.4-7.2-15.8-12.1-32.4-1-3.4-1-3.4-.5 1z"/><path d="M1096 469.9c-1.1 2.3-1.8 4.1-1.6 4.1.8 0 4.8-7.1 4.3-7.6-.3-.3-1.5 1.2-2.7 3.5zM1844.9 486.1c-.1 3.5-.8 10-1.4 12.6-.3 1.3-.1 2.3.5 2.3.5 0 1-1 1.1-2.3 0-1.2.2-3.3.5-4.7.6-4.2.6-9.1 0-9.7-.3-.4-.6.5-.7 1.8zM1842.8 505c-.3 1.7-.1 3 .3 3 1 0 1.8-5 .9-5.5-.4-.3-1 .9-1.2 2.5zM1841.4 514.2c-.4 2.9-.8 5.5-.9 5.8-.2.7-1.8 11.2-2 13-.1.8-.9 5.1-1.9 9.5-2.4 11.5-2.6 12.6-3.2 16.5-.3 1.9-.8 3.8-1 4.1-.2.3-.6 1.9-.8 3.5-1.1 5.8-1.6 8-3.3 14.5-1 3.9-1.3 7.3-.9 8.5.8 1.7 1 1.6 1.8-1.1 1.1-3.7 1.8-6.4 2.3-9 .5-2.8 1.3-6.3 1.9-8.3.3-.9.8-3.1 1.1-4.7.3-1.7.7-4.4 1-6 .3-1.7 1-5.3 1.5-8 1.9-10 2.1-11.1 2.6-14.5.2-1.9.7-4.6 1-6 .5-2.8 1.1-6.6 1.9-12.5.3-2.2.7-5.5 1-7.3.2-1.7 0-3.2-.5-3.2-.4 0-1.2 2.4-1.6 5.2zM1081.6 619.9c-4.2 7.6-7.6 14.5-7.6 15.3 0 1.4 6.4 7.8 14.5 14.7 8 6.8 32.6 22.2 53.1 33.4 11.4 6.2 46.4 23 46.9 22.5.7-.7 11.5-22.7 11.5-23.4 0-.4 1.6-3.9 3.5-7.8 2-3.9 2.8-6.1 1.9-4.9-.9 1.3-2 2.3-2.4 2.3-1.4 0-51.3-28-52.4-29.4-.6-.8-13.9-8.5-29.6-17.2-15.7-8.6-29.2-16.5-30.1-17.5-1.6-1.7-2.1-1-9.3 12zM1821.8 657.9c-1.6 1.5-2.8 3.7-2.8 4.9 0 3.2-4 14-9.4 25.7-6.4 13.7-4.4 11 6-7.9 7-12.9 8.7-16.9 8.9-20.8.2-2.6.2-4.8.1-4.7 0 .1-1.3 1.3-2.8 2.8zM1784.1 679.3c-2.5 6.6-7 16-10.4 21.7l-2 3.5 3.2-3c3.6-3.3 5.8-7.7 9.7-19.6 3.2-9.6 2.9-11.2-.5-2.6zM1483 711.7c-5.9 10.2-14.4 21.2-18.5 23.9-1.4.9-5.3 2.7-8.7 3.9l-6.1 2.2 3.4.6c1.9.4 7 .9 11.4 1.3l8 .6 3.7-9.4c2-5.1 5.3-13.1 7.3-17.8 3.7-8.5 5.7-14.2 5.2-14.6-.1-.1-2.7 4-5.7 9.3zM1493.5 760c-1.5 2.9-2.5 5.4-2.3 5.6.2.2 2.4.6 4.8.9 2.5.3 6.1.7 8 1 3.7.4 14.3 1.4 22.4 2 5.3.4 5.3-1.3 0-1.9-1.7-.2-4.6-1.3-6.5-2.5-1.9-1.2-4.3-2.1-5.4-2.1-1.1 0-2.9-.7-3.9-1.5-1.1-.8-2.8-1.5-3.9-1.5-1 0-3.8-1.2-6.2-2.6l-4.4-2.5-2.6 5.1zM1535.5 770c.3.5.8 1 1.1 1 .2 0 .4-.5.4-1 0-.6-.5-1-1.1-1-.5 0-.7.4-.4 1z"/></svg>